<svg xmlns="http://www.w3.org/2000/svg" viewBox="0 0 80.63 80.64"><defs><style>.cls-1{fill:#50b36f;}</style></defs><title>bpom</title><g id="Layer_2" data-name="Layer 2"><g id="Layer_1-2" data-name="Layer 1"><path class="cls-1" d="M40.32,80.64A40.32,40.32,0,1,1,80.63,40.32,40.37,40.37,0,0,1,40.32,80.64ZM40.32,3A37.32,37.32,0,1,0,77.63,40.32,37.36,37.36,0,0,0,40.32,3Z"/><path class="cls-1" d="M55.52,63.61H18V16.74H55.52v8H54A11.95,11.95,0,0,0,42.09,36h0c0,.25,0,.49,0,.74a12,12,0,0,0,12,12h1.5ZM21,60.61H52.52v-9A15,15,0,0,1,39.06,36.73c0-.31,0-.63,0-.94a14.92,14.92,0,0,1,4.12-9.4,14.73,14.73,0,0,1,9.31-4.55v-2.1H21Z"/><path class="cls-1" d="M54,51.7a15,15,0,0,1-15-15c0-.32,0-.63,0-.95A15,15,0,1,1,54,51.7Zm0-26.93A11.95,11.95,0,0,0,42.09,36c0,.26,0,.5,0,.75a12,12,0,1,0,12-12Z"/><rect class="cls-1" x="24.91" y="25.93" width="19.42" height="3"/><rect class="cls-1" x="24.91" y="34.39" width="15.91" height="3"/><rect class="cls-1" x="24.91" y="43.04" width="18.15" height="3"/><rect class="cls-1" x="24.91" y="52.49" width="23.9" height="3"/><polygon class="cls-1" points="52.49 42.17 46.8 37.73 48.65 35.37 52.25 38.17 59.85 30.57 61.97 32.69 52.49 42.17"/></g></g></svg>