<svg xmlns="http://www.w3.org/2000/svg" viewBox="0 0 80.64 80.64"><defs><style>.cls-1{fill:#50b36f;}</style></defs><title>halal</title><g id="Layer_2" data-name="Layer 2"><g id="Layer_1-2" data-name="Layer 1"><path class="cls-1" d="M40.32,80.64A40.32,40.32,0,1,1,80.64,40.32,40.37,40.37,0,0,1,40.32,80.64ZM40.32,3A37.32,37.32,0,1,0,77.64,40.32,37.36,37.36,0,0,0,40.32,3Z"/><path class="cls-1" d="M15.8,52.33H14.31A6.31,6.31,0,0,1,8,46v-1h3v1a3.3,3.3,0,0,0,3.3,3.3H15.8a6,6,0,0,0,6-6V28.37A6.08,6.08,0,0,1,23.6,24l2.12,2.13a3.09,3.09,0,0,0-.91,2.2v15A9,9,0,0,1,15.8,52.33Z"/><path class="cls-1" d="M35.6,41.69a20.91,20.91,0,0,0-6.78-7.45l-1-.67,1.67-2.5,1,.67a24,24,0,0,1,7.75,8.52Z"/><path class="cls-1" d="M28.15,55.22v-3a11.61,11.61,0,0,0,11-7.94l3.95-11.86a1.6,1.6,0,0,1,3.12.51V45.31a3.6,3.6,0,0,0,4.18,3.55L61,47.12a43,43,0,0,1,6.79-.55H70l-8.37-2.42a9.21,9.21,0,0,0-7.08.8l-.65.35-1.45-2.62.65-.36a12.23,12.23,0,0,1,9.36-1.05l11.33,3.28v1.13a3.91,3.91,0,0,1-3.9,3.9H67.75a39.17,39.17,0,0,0-6.3.51L50.91,51.82a6.6,6.6,0,0,1-7.67-6.51V41.55L42,45.23A14.58,14.58,0,0,1,28.15,55.22Z"/></g></g></svg>