<?xml version="1.0" encoding="UTF-8"?>
<svg id="Layer_1" xmlns="http://www.w3.org/2000/svg" version="1.1" viewBox="0 0 80.64 80.64">
  <!-- Generator: Adobe Illustrator 30.2.1, SVG Export Plug-In . SVG Version: 2.1.1 Build 1)  -->
  <defs>
    <style>
      .st0, .st1 {
        fill: #50b36f;
      }

      .st1 {
        fill-rule: evenodd;
      }
    </style>
  </defs>
  <g id="Layer_2">
    <g id="Layer_1-2">
      <path class="st0" d="M40.32,80.64C18.05,80.64,0,62.59,0,40.32S18.05,0,40.32,0s40.32,18.05,40.32,40.32h0c-.03,22.26-18.06,40.29-40.32,40.32ZM40.32,3C19.71,3,3,19.71,3,40.32s16.71,37.32,37.32,37.32,37.32-16.71,37.32-37.32c-.02-20.6-16.72-37.3-37.32-37.32Z"/>
      <g id="Layer_x5F_1">
        <g id="_1821613301216">
          <path class="st1" d="M46.43,47.39h2.18v-22.7c1.75,2.75,3.42,5.52,4.91,8.42,1.09,2.11,1.46,3.82,1.18,6.18-.16,1.35-.7,2.59-1.49,3.68-.29.4-.61.78-.95,1.14-.24.26-.52.51-.75.78-.54.65-.84,1.55-.82,2.39l-.02,3.41c0,.96-.33,1.34-1.3,1.34h-5.38V13.75l-.88-1.27-1.3,1.86v37.68h-10.54c-.97,0-1.29-.38-1.3-1.34v-.35h-2.18v.36c.01,2.14,1.27,3.51,3.48,3.51h18.09c2.21,0,3.47-1.38,3.48-3.51l.02-3.44s-.02-.56.32-.98,3.2-2.77,3.67-6.74c.33-2.71-.09-4.86-1.4-7.44-2.67-5.18-5.89-9.97-9.03-14.78v30.07h-.01ZM36.6,22.41l2.18-3.31v28.3h-2.18v-24.99ZM31.88,20.9v24.31h-2.47c-.77-.79-1.35-1.39-1.96-2.24-.79-1.1-1.33-2.33-1.49-3.68-.29-2.35.1-4.07,1.18-6.18.81-1.56,1.67-3.11,2.57-4.62v-4.18c-1.6,2.53-3.12,5.12-4.51,7.8-1.32,2.57-1.73,4.72-1.4,7.44.48,3.97,3.33,6.32,3.67,6.74,1.33,1.33,2.25,1.11,2.99,1.11h3.61v-25.88c2.49-3.87,4.94-7.6,7.47-11.35-1.14-1.05-1.69-1.04-2.52,0-2.83,4.1-4.93,7.34-7.12,10.72h-.01Z"/>
          <path class="st0" d="M26.16,57.77v.04c-.15.16-.24.42-.3.76-.04.35-.07.76-.07,1.2v.85l2.11-.27v-.6c0-.45-.02-.85-.07-1.2-.04-.35-.15-.61-.3-.76v-.04h2.43v.04c-.15.16-.24.42-.3.76-.04.35-.07.76-.07,1.2v2.55c0,.45.02.85.07,1.2.04.35.15.61.3.76v.04h-2.43v-.04c.15-.16.24-.42.3-.76.04-.35.07-.76.07-1.2v-.76l-2.11.27v.49c0,.45.02.85.07,1.2.04.35.15.61.3.76v.04h-2.43v-.04c.15-.16.24-.42.3-.76s.07-.76.07-1.2v-2.55c0-.45-.02-.85-.07-1.2s-.15-.61-.3-.76v-.04h2.43ZM34.11,60.06l-.73,1.87,1.4-.18-.67-1.7h0ZM32.87,63.23c-.05.15-.09.27-.11.36-.02.1-.03.19-.03.28,0,.12.01.2.04.27.03.06.05.12.09.16v.04h-2.47v-.04c.2-.22.37-.49.53-.81s.29-.62.39-.9l1.52-3.85c.06-.16.11-.29.12-.36.01-.07.02-.13.02-.16,0-.11-.01-.19-.04-.26-.03-.06-.05-.12-.09-.15v-.04h2.19l1.89,4.81c.11.28.23.59.39.9.15.32.33.59.53.81v.04h-2.47v-.04s.06-.09.09-.16c.03-.06.04-.16.04-.27,0-.09-.01-.17-.03-.28s-.06-.22-.12-.36l-.12-.31-2.36.29v.02h-.02ZM40.65,57.77v.04c-.15.16-.24.42-.3.76-.04.35-.07.76-.07,1.2v3.13h1.75c.18,0,.36-.02.52-.04.17-.03.32-.07.47-.14s.29-.15.43-.27h.04l-.35,2.01-.04.02c-.07-.03-.17-.05-.29-.07s-.26-.03-.4-.04c-.15,0-.31-.01-.48-.02h-3.7v-.04c.15-.16.24-.42.3-.76.04-.35.07-.76.07-1.2v-2.55c0-.45-.02-.85-.07-1.2-.04-.35-.15-.61-.3-.76v-.04h2.43v-.02ZM47.51,60.06l-.73,1.87,1.4-.18-.67-1.7h0ZM46.26,63.23c-.05.15-.09.27-.11.36-.02.1-.03.19-.03.28,0,.12.01.2.04.27.03.06.05.12.09.16v.04h-2.47v-.04c.2-.22.37-.49.53-.81s.29-.62.39-.9l1.52-3.85c.06-.16.11-.29.12-.36.01-.07.02-.13.02-.16,0-.11-.01-.19-.04-.26-.03-.06-.05-.12-.09-.15v-.04h2.19l1.89,4.81c.11.28.23.59.39.9.15.32.33.59.53.81v.04h-2.47v-.04s.06-.09.09-.16c.03-.06.04-.16.04-.27,0-.09-.01-.17-.03-.28s-.06-.22-.12-.36l-.12-.31-2.36.29v.02h-.02ZM54.04,57.77v.04c-.15.16-.24.42-.3.76-.04.35-.07.76-.07,1.2v3.13h1.75c.18,0,.36-.02.52-.04.17-.03.32-.07.47-.14s.29-.15.43-.27h.04l-.35,2.01-.04.02c-.07-.03-.17-.05-.29-.07s-.26-.03-.4-.04c-.15,0-.31-.01-.48-.02h-3.7v-.04c.15-.16.24-.42.3-.76.04-.35.07-.76.07-1.2v-2.55c0-.45-.02-.85-.07-1.2-.04-.35-.15-.61-.3-.76v-.04h2.43v-.02Z"/>
          <path class="st0" d="M24.43,69.13s-.02.07-.06.07h-.52s-.04,0-.05-.02c-.01-.01-.02-.03-.02-.05v-2.51s.02-.06.07-.06h.52s.06.02.06.06v2.51h0ZM28.77,66.55s.04,0,.05.02c.01.01.02.03.02.05v2.51s0,.04-.02.05c-.01.01-.03.02-.05.02h-.49c-.05,0-.11-.03-.14-.09l-1.02-1.55v1.56s0,.04-.02.05c-.01.01-.03.02-.05.02h-.52s-.04,0-.05-.02c-.01-.01-.02-.03-.02-.05v-2.51s0-.04.02-.05c.01-.01.03-.02.05-.02h.53s.1.03.14.09l.98,1.46v-1.48s0-.04.02-.05c.01-.01.03-.02.05-.02h.52,0ZM30.87,66.64s0-.05.03-.06c.02-.02.04-.03.06-.03h.83c.26,0,.49.05.69.17.2.12.36.27.48.47s.17.44.17.69-.05.48-.17.68-.28.36-.48.47c-.2.12-.44.17-.69.17h-.83s-.05,0-.06-.03c-.02-.02-.03-.04-.03-.06v-2.46h0ZM31.79,68.58c.13,0,.24-.03.35-.1.11-.06.18-.15.24-.26.05-.11.09-.22.09-.35s-.03-.26-.09-.36c-.05-.11-.14-.19-.24-.26s-.22-.1-.35-.1h-.27v1.42h.27ZM34.92,67.88c0-.26.06-.49.18-.7.12-.21.29-.38.5-.5s.45-.18.7-.18.49.06.69.18c.21.13.38.29.5.5.13.21.18.45.18.7s-.06.49-.18.69c-.12.21-.29.37-.5.5-.21.12-.45.18-.7.18s-.49-.06-.7-.18-.38-.29-.5-.5c-.12-.21-.18-.45-.18-.69h.01ZM35.57,67.88c0,.13.03.26.1.36s.15.19.27.26c.11.06.23.1.36.1s.26-.03.36-.1.2-.15.27-.26.1-.23.1-.36-.03-.26-.1-.36-.15-.2-.27-.27c-.11-.06-.23-.1-.36-.1s-.26.03-.36.1-.2.15-.27.27c-.06.11-.1.23-.1.36ZM41.91,66.55s.04,0,.05.02c.01.01.02.03.02.05v2.51s0,.04-.02.05c-.01.01-.03.02-.05.02h-.49c-.05,0-.11-.03-.14-.09l-1.02-1.55v1.56s0,.04-.02.05c-.01.01-.03.02-.05.02h-.52s-.04,0-.05-.02c-.01-.01-.02-.03-.02-.05v-2.51s0-.04.02-.05c.01-.01.03-.02.05-.02h.53s.1.03.14.09l.98,1.46v-1.48s0-.04.02-.05c.01-.01.03-.02.05-.02h.52ZM44,66.64s0-.05.02-.07.04-.02.07-.02h1.71s.05,0,.07.02.02.04.02.07v.42s0,.05-.02.07-.04.02-.07.02h-1.16v.44h.87s.06,0,.07.03c.02.02.03.04.03.07v.34s0,.05-.03.07-.04.02-.07.02h-.87v.46h1.16s.07.01.1.03.03.05.03.09v.39s0,.05-.02.06c-.02.02-.04.02-.07.02h-1.75s-.05,0-.07-.02-.02-.04-.02-.07v-2.47h0v.02ZM47.84,68.98s-.04-.04-.04-.07c0-.02,0-.04.02-.06l.21-.38s.04-.05.09-.05c.02,0,.03,0,.06.01.12.05.23.1.35.13.11.03.23.04.35.04.1,0,.17-.02.23-.05.06-.03.1-.09.1-.15,0-.04-.02-.09-.05-.12s-.09-.06-.15-.09c-.06-.02-.16-.05-.28-.1-.19-.05-.34-.12-.46-.18s-.2-.15-.27-.24c-.06-.1-.1-.22-.1-.37,0-.17.04-.32.14-.44.09-.12.21-.21.36-.28.15-.06.31-.1.49-.1.11,0,.22.01.33.04.12.02.21.05.31.1.1.04.17.07.22.12.03.02.05.05.05.09,0,.02,0,.04-.02.07l-.21.39s-.04.04-.07.04c-.02,0-.05,0-.09-.02-.11-.05-.19-.1-.28-.12-.09-.03-.18-.04-.29-.04-.07,0-.14.02-.2.05-.05.03-.09.07-.09.13s.03.1.11.14.19.09.34.13c.19.05.35.12.48.18.12.05.22.14.3.24.07.11.11.23.11.39,0,.17-.04.32-.14.45-.1.13-.21.22-.37.3-.16.06-.33.11-.52.11-.18,0-.35-.02-.53-.06s-.34-.12-.48-.2h0l-.02-.02ZM52.44,69.13s-.02.07-.06.07h-.52s-.04,0-.05-.02c-.01-.01-.02-.03-.02-.05v-2.51s.02-.06.07-.06h.52s.06.02.06.06v2.51h0ZM56.86,69.1v.04s0,.03-.02.04c-.01.01-.03.02-.06.02h-.52s-.05,0-.07-.02-.03-.03-.04-.06l-.12-.35h-.93l-.12.35s-.02.04-.04.06-.04.02-.07.02h-.51s-.04,0-.06-.02c-.01-.01-.02-.03-.02-.05v-.04l.97-2.46s.03-.05.05-.06c.02-.02.04-.02.07-.02h.38s.05,0,.07.02.04.04.05.06l.97,2.47h.02ZM55.85,68.22l-.28-.81-.28.81s.55,0,.55,0Z"/>
        </g>
      </g>
    </g>
  </g>
</svg>