<?xml version="1.0" encoding="UTF-8"?>
<svg width="492px" height="201px" viewBox="0 0 492 201" version="1.1" xmlns="http://www.w3.org/2000/svg" xmlns:xlink="http://www.w3.org/1999/xlink">
    <!-- Generator: Sketch 55.2 (78181) - https://sketchapp.com -->
    <title>Page 1 Copy</title>
    <desc>Created with Sketch.</desc>
    <defs>
        <polygon id="path-1" points="80.8457841 0.0414955574 0.379966527 0.0414955574 0.379966527 89.3841406 80.8457841 89.3841406 80.8457841 0.0414955574"></polygon>
        <polygon id="path-3" points="93.8103985 0.0631297348 0 0.0631297348 0 90.0663823 93.8103985 90.0663823 93.8103985 0.0631297348"></polygon>
        <polygon id="path-5" points="76.9196332 0.0631297348 0.0813949642 0.0631297348 0.0813949642 90.066105 76.9196332 90.066105"></polygon>
        <polygon id="path-7" points="103.342871 0.0631297348 0.197205773 0.0631297348 0.197205773 90.0652732 103.342871 90.0652732 103.342871 0.0631297348"></polygon>
        <polygon id="path-9" points="119.387287 0.0631297348 0.318003832 0.0631297348 0.318003832 90.064996 119.387287 90.064996 119.387287 0.0631297348"></polygon>
    </defs>
    <g id="Desktop" stroke="none" stroke-width="1" fill="none" fill-rule="evenodd">
        <g id="Home" transform="translate(-341.000000, -1262.000000)">
            <g id="Page-1-Copy" transform="translate(341.000000, 1261.000000)">
                <g id="Group-12" transform="translate(315.000000, 0.847934)">
                    <mask id="mask-2" fill="white">
                        <use xlink:href="#path-1"></use>
                    </mask>
                    <g id="Clip-11"></g>
                </g>
                <g id="Group" transform="translate(0.000000, 0.847934)">
                    <g id="Group-3" transform="translate(0.000000, 0.116620)">
                        <mask id="mask-4" fill="white">
                            <use xlink:href="#path-3"></use>
                        </mask>
                        <g id="Clip-2"></g>
                        <path d="M28.671559,0.0625752169 C29.6631274,0.0625752169 30.5078993,0.40637634 31.1947958,1.09675118 C31.8816923,1.78712601 32.2279103,2.58840444 32.2279103,3.50890422 L32.2279103,32.3216564 L61.4708675,32.3216564 L61.4708675,3.50890422 C61.4708675,2.58840444 61.811546,1.78712601 62.5039821,1.09675118 C63.1881088,0.40637634 64.0328807,0.0625752169 65.0216794,0.0625752169 L90.256817,0.0625752169 C91.2483853,0.0625752169 92.0876178,0.40637634 92.777284,1.09675118 C93.4669503,1.78712601 93.8103985,2.58840444 93.8103985,3.50890422 L93.8103985,86.6228258 C93.8103985,87.5433256 93.4669503,88.3446041 92.777284,89.0322063 C92.0876178,89.7225811 91.2483853,90.0663823 90.256817,90.0663823 L65.0216794,90.0663823 C64.0328807,90.0663823 63.1881088,89.7225811 62.5039821,89.0322063 C61.811546,88.3446041 61.4708675,87.5433256 61.4708675,86.6228258 L61.4708675,55.9718466 L32.2279103,55.9718466 L32.2279103,86.6228258 C32.2279103,87.5433256 31.8816923,88.3446041 31.1947958,89.0322063 C30.5078993,89.7225811 29.6631274,90.0663823 28.671559,90.0663823 L3.44473062,90.0663823 C2.51963612,90.0663823 1.72471959,89.7225811 1.03228359,89.0322063 C0.342617333,88.3446041 -0.000830923201,87.5433256 -0.000830923201,86.6228258 L-0.000830923201,3.50890422 C-0.000830923201,2.58840444 0.342617333,1.78712601 1.03228359,1.09675118 C1.72471959,0.40637634 2.51963612,0.0625752169 3.44473062,0.0625752169 L28.671559,0.0625752169 Z" id="Fill-1" fill="#29CB7E" mask="url(#mask-4)"></path>
                    </g>
                    <g id="Group-6" transform="translate(101.290959, 0.116620)">
                        <mask id="mask-6" fill="white">
                            <use xlink:href="#path-5"></use>
                        </mask>
                        <g id="Clip-5"></g>
                        <path d="M3.52141702,90.066105 C2.60186201,90.066105 1.80140599,89.7223039 1.11173973,89.031929 C0.424843221,88.3443268 0.0813949642,87.5430484 0.0813949642,86.6225486 L0.0813949642,3.50862696 C0.0813949642,2.58812718 0.424843221,1.78684876 1.11173973,1.09647392 C1.80140599,0.406099082 2.60186201,0.0622979579 3.52141702,0.0622979579 L70.3774978,0.0622979579 C71.2998226,0.0622979579 72.1030483,0.406099082 72.7871751,1.09647392 C73.4768414,1.78684876 73.8202896,2.58812718 73.8202896,3.50862696 L73.8202896,20.2717043 C73.8202896,21.2642914 73.4768414,22.1071587 72.7871751,22.7975335 C72.1030483,23.4879084 71.2998226,23.8289369 70.3774978,23.8289369 L31.8531285,23.8289369 L31.8531285,33.011754 L64.760457,33.011754 C65.6827817,33.011754 66.4776983,33.3527826 67.1673645,34.0431574 C67.8570308,34.7335322 68.2032488,35.5375832 68.2032488,36.458083 L68.2032488,52.9882629 C68.2032488,53.98085 67.8570308,54.8264898 67.1673645,55.5168647 C66.4776983,56.2016943 65.6827817,56.548268 64.760457,56.548268 L31.8531285,56.6619442 L31.8531285,66.2966934 L73.4768414,66.2966934 C74.4711795,66.2966934 75.2910237,66.6460398 75.9391438,67.333642 C76.5900336,68.0240168 76.9196332,68.8696567 76.9196332,69.8622438 L76.9196332,86.6225486 C76.9196332,87.5430484 76.5900336,88.3443268 75.9391438,89.031929 C75.2910237,89.7223039 74.4711795,90.066105 73.4768414,90.066105 L3.52141702,90.066105 Z" id="Fill-4" fill="#29CB7E" mask="url(#mask-6)"></path>
                    </g>
                    <g id="Group-9" transform="translate(185.572848, 0.116620)">
                        <mask id="mask-8" fill="white">
                            <use xlink:href="#path-7"></use>
                        </mask>
                        <g id="Clip-8"></g>
                        <path d="M31.9661695,20.6146737 L31.9661695,37.716007 L45.7290275,37.716007 C51.3072919,37.716007 55.5560792,37.0699936 58.4587709,35.7668764 C61.3642324,34.4637593 62.8128085,32.1320113 62.8128085,28.7633148 C62.8128085,25.9352733 61.7049109,23.8669214 59.4891157,22.5665768 C57.2705508,21.2634597 54.054878,20.6146737 49.8531763,20.6146737 L31.9661695,20.6146737 Z M32.653066,58.2664419 L32.653066,86.6217168 C32.653066,87.5422166 32.3123875,88.343495 31.6227213,89.0310973 C30.933055,89.7214721 30.0882831,90.0652732 29.093945,90.0652732 L3.63999757,90.0652732 C2.71767282,90.0652732 1.9172168,89.7214721 1.23309003,89.0310973 C0.543423774,88.343495 0.197205773,87.5422166 0.197205773,86.6217168 L0.197205773,3.51056778 C0.197205773,2.59006799 0.543423774,1.78601698 1.23309003,1.09564214 C1.9172168,0.405267305 2.71767282,0.061466181 3.63999757,0.061466181 L61.2118965,0.061466181 C71.0749549,0.061466181 78.9798043,2.24072169 84.9458329,6.61032307 C91.3688692,11.3542241 94.584542,17.5897783 94.584542,25.3197584 C94.584542,34.0450982 91.9422062,40.358285 86.6658439,44.2593187 C85.3723734,45.257451 83.8628629,46.1945863 82.1373124,47.0734972 C80.4173014,47.9524082 78.5255663,48.7398237 76.462107,49.4301985 C78.9077909,50.7277705 80.9906384,52.1445638 82.7106494,53.6778059 C84.4306605,55.2082754 85.8653879,56.738745 87.0148316,58.2664419 L102.72482,84.7862624 C103.486499,86.0921522 103.544664,87.2926835 102.896544,88.404492 C102.242884,89.5107553 101.193151,90.0652732 99.7390356,90.0652732 L70.6124076,90.0652732 C70.0002942,90.0652732 69.4103387,89.8711919 68.8370017,89.4885746 C68.260895,89.114275 67.8260452,88.6512525 67.5186036,88.1105975 L52.8389603,60.7922711 L52.9497501,61.0196235 C52.6423085,60.6397787 52.3210182,60.2571613 51.97757,59.8745439 C51.6341217,59.4919265 51.2685155,59.1841691 50.8835211,58.9568167 C50.2769471,58.4965668 47.9060463,58.2664419 43.7791277,58.2664419 L32.653066,58.2664419 Z" id="Fill-7" fill="#29CB7E" mask="url(#mask-8)"></path>
                    </g>
                    <path d="M322.848563,52.5279065 L322.848563,69.634785 L330.764491,69.634785 C333.974624,69.634785 336.630809,68.8667777 338.735814,67.3363082 C340.83251,65.8086112 341.885013,63.7790756 341.885013,61.2532463 C341.885013,58.5749247 340.893445,56.4538936 338.904769,54.8790626 C336.916092,53.315322 334.320842,52.5279065 331.110709,52.5279065 L322.848563,52.5279065 Z M322.848563,20.7318478 L322.848563,35.0772269 L329.844936,35.0772269 C332.753167,35.0772269 335.09914,34.353581 336.902244,32.8979714 C338.694268,31.4451344 339.594435,29.8342598 339.594435,28.0792105 C339.594435,26.0884911 338.735814,24.3611677 337.013033,22.9138759 C335.293022,21.4610389 332.94151,20.7318478 329.955726,20.7318478 L322.848563,20.7318478 Z M295.671834,90.1824473 C294.752279,90.1824473 293.949054,89.8386462 293.262157,89.1482714 C292.575261,88.4606691 292.231812,87.6593907 292.231812,86.7388909 L292.231812,3.62496931 C292.231812,2.70446952 292.575261,1.9031911 293.262157,1.21281626 C293.949054,0.522441425 294.752279,0.178640302 295.671834,0.178640302 L342.004112,0.178640302 C345.975925,0.178640302 349.590441,0.697114577 352.84212,1.72851795 C356.08826,2.75992132 359.01588,4.27652789 361.6139,6.2672473 C364.289472,8.40768655 366.333544,10.7976589 367.746113,13.4371643 C369.164222,16.0822149 369.867737,19.1209732 369.867737,22.5673022 C369.867737,26.7733208 368.953721,30.4858184 367.117381,33.704795 C365.283811,36.9182265 362.417125,39.5189156 358.514556,41.5096351 C362.491909,43.1121919 365.516469,45.1056839 367.574389,47.4790207 C371.399405,51.9207094 373.310529,57.6183812 373.310529,64.580354 C373.310529,72.3131067 370.363521,78.5902498 364.480585,83.4090107 C358.896781,87.9227867 351.634512,90.1824473 342.691009,90.1824473 L295.671834,90.1824473 Z" id="Fill-10" fill="#29CB7E"></path>
                    <g id="Group-15" transform="translate(369.956127, 0.116620)">
                        <mask id="mask-10" fill="white">
                            <use xlink:href="#path-9"></use>
                        </mask>
                        <g id="Clip-14"></g>
                        <path d="M48.1674746,56.6608352 L69.4972732,56.6608352 L59.1827465,36.6843264 L48.1674746,56.6608352 Z M88.8827115,90.064996 C88.3453811,90.064996 87.7498862,89.8709147 87.1017661,89.4882973 C86.453646,89.1139977 86.0160264,88.6509752 85.7833679,88.1103202 L79.9392081,76.8619238 L36.9278534,76.8619238 L31.0864633,88.1103202 C30.7734822,88.6509752 30.3164745,89.1139977 29.7071308,89.4882973 C29.0922476,89.8709147 28.4829039,90.064996 27.865251,90.064996 L4.13131465,90.064996 C2.60241596,90.064996 1.48897887,89.5271136 0.804852098,88.4568939 C0.120725329,87.3866743 0.156732001,86.2027785 0.918411603,84.8968888 L48.0566848,1.90218849 C48.2865736,1.43916601 48.7435813,1.02050496 49.4332476,0.637887581 C50.1229139,0.255270201 50.6934811,0.0611889221 51.1532586,0.0611889221 L71.447173,0.0611889221 C71.9845033,0.0611889221 72.5606101,0.255270201 73.167184,0.637887581 C73.7876066,1.02050496 74.2418447,1.47798226 74.5437468,2.01586466 L118.926125,85.0188827 C119.541008,86.3164547 119.541008,87.4809424 118.926125,88.5123457 C118.314011,89.5492943 117.24489,90.064996 115.715991,90.064996 L88.8827115,90.064996 Z" id="Fill-13" fill="#29CB7E" mask="url(#mask-10)"></path>
                    </g>
                    <path d="M140.935377,96.6417496 C142.068202,96.6417496 143.032073,97.0410025 143.818681,97.8173276 C144.599748,98.6047431 144.993052,99.5280155 144.993052,100.573282 L144.993052,195.431893 C144.993052,196.482705 144.599748,197.405977 143.818681,198.187848 C143.032073,198.975263 142.068202,199.368971 140.935377,199.368971 L114.758526,199.368971 C113.622931,199.368971 112.66737,198.975263 111.877993,198.187848 C111.094155,197.405977 110.703621,196.482705 110.703621,195.431893 L110.703621,144.202753 L82.2943569,197.139809 C81.9453692,197.752551 81.427427,198.273798 80.7266818,198.709094 C80.0287063,199.152709 79.3695072,199.368971 78.7657031,199.368971 L66.4597304,199.368971 C65.8448473,199.368971 65.1911877,199.152709 64.4904425,198.709094 C63.792467,198.273798 63.2717551,197.752551 62.9227673,197.139809 L34.6492205,144.33861 L34.6492205,195.431893 C34.6492205,196.482705 34.2586866,197.405977 33.4748491,198.187848 C32.6882418,198.975263 31.7243709,199.368971 30.5943153,199.368971 L4.41469497,199.368971 C3.28186967,199.368971 2.32353825,198.975263 1.5341612,198.187848 C0.750323651,197.405977 0.36255949,196.482705 0.36255949,195.431893 L0.36255949,100.573282 C0.36255949,99.5280155 0.750323651,98.6047431 1.5341612,97.8173276 C2.32353825,97.0410025 3.28186967,96.6417496 4.41469497,96.6417496 L35.0452939,96.6417496 C35.5687755,96.6417496 36.2002772,96.841376 36.9425686,97.2350838 C37.68486,97.6232463 38.1834139,98.0862688 38.4465396,98.6047431 L72.7415098,154.289435 L106.640407,98.6047431 C106.989394,98.0862688 107.515646,97.6232463 108.216391,97.2350838 C108.911597,96.841376 109.562487,96.6417496 110.17737,96.6417496 L140.935377,96.6417496 Z" id="Fill-16" fill="#29CB7E"></path>
                    <path d="M233.675823,130.906522 C229.352253,127.108074 223.089862,125.206078 214.89142,125.206078 C206.684668,125.206078 200.444435,127.108074 196.17072,130.906522 C191.899775,134.707743 189.758762,140.363826 189.758762,147.880316 C189.758762,155.382944 191.899775,161.039027 196.17072,164.84302 C200.444435,168.641468 206.684668,170.543465 214.89142,170.543465 C223.089862,170.543465 229.352253,168.641468 233.675823,164.84302 C237.991085,161.039027 240.151485,155.382944 240.151485,147.880316 C240.151485,140.363826 237.991085,134.707743 233.675823,130.906522 M260.833163,187.838879 C250.446623,196.575309 235.132709,200.936593 214.89142,200.936593 C194.647361,200.936593 179.330676,196.575309 168.946906,187.838879 C158.563136,179.102449 153.367096,165.788473 153.367096,147.880316 C153.367096,129.966614 158.563136,116.624913 168.946906,107.844121 C179.330676,99.0633294 194.647361,94.6770925 214.89142,94.6770925 C235.132709,94.6770925 250.446623,99.0633294 260.833163,107.844121 C271.216934,116.624913 276.410204,129.966614 276.410204,147.880316 C276.410204,165.788473 271.216934,179.102449 260.833163,187.838879" id="Fill-18" fill="#29CB7E"></path>
                    <path d="M359.46264,97.5608631 C358.717578,96.7762202 357.822951,96.3825124 356.775988,96.3825124 L328.765567,96.3825124 C327.718604,96.3825124 326.804588,96.7762202 326.012441,97.5608631 C325.234143,98.345506 324.843609,99.3103672 324.843609,100.441584 L324.843609,155.840699 C324.843609,162.711176 321.367581,166.39872 314.506925,166.986509 L287.981086,166.986509 C286.615602,166.986509 285.482777,167.466167 284.59092,168.41162 C283.701832,169.359846 283.244824,170.529879 283.244824,171.899538 L283.244824,194.98412 C283.244824,196.253966 283.701832,197.36023 284.59092,198.30291 C285.482777,199.256681 286.615602,199.730794 287.981086,199.730794 L321.578081,199.730794 L321.608548,199.841697 C333.033742,199.841697 342.425944,198.244686 349.580193,191.607106 C356.911705,184.70613 360.570537,175.930884 360.570537,165.273049 L360.570537,100.441584 C360.570537,99.3103672 360.202161,98.345506 359.46264,97.5608631" id="Fill-20" fill="#29CB7E"></path>
                    <path d="M449.253309,130.906522 C444.935278,127.108074 438.670117,125.206078 430.468905,125.206078 C422.262153,125.206078 416.02469,127.108074 411.750975,130.906522 C407.47726,134.707743 405.336248,140.363826 405.336248,147.880316 C405.336248,155.382944 407.47726,161.039027 411.750975,164.84302 C416.02469,168.641468 422.262153,170.543465 430.468905,170.543465 C438.670117,170.543465 444.935278,168.641468 449.253309,164.84302 C453.574109,161.039027 455.73174,155.382944 455.73174,147.880316 C455.73174,140.363826 453.574109,134.707743 449.253309,130.906522 M476.410649,187.838879 C466.032418,196.575309 450.718503,200.936593 430.468905,200.936593 C410.224846,200.936593 394.908161,196.575309 384.524391,187.838879 C374.140621,179.102449 368.95289,165.788473 368.95289,147.880316 C368.95289,129.966614 374.140621,116.624913 384.524391,107.844121 C394.908161,99.0633294 410.224846,94.6770925 430.468905,94.6770925 C450.718503,94.6770925 466.032418,99.0633294 476.410649,107.844121 C486.797189,116.624913 491.987689,129.966614 491.987689,147.880316 C491.987689,165.788473 486.797189,179.102449 476.410649,187.838879" id="Fill-22" fill="#29CB7E"></path>
                </g>
            </g>
        </g>
    </g>
</svg>