<?xml version="1.0" encoding="utf-8"?>
<!-- Generator: Adobe Illustrator 23.0.1, SVG Export Plug-In . SVG Version: 6.00 Build 0)  -->
<svg version="1.1" id="Layer_1" xmlns="http://www.w3.org/2000/svg" xmlns:xlink="http://www.w3.org/1999/xlink" x="0px" y="0px"
	 viewBox="0 0 529.2 529.2" style="enable-background:new 0 0 529.2 529.2;" xml:space="preserve">
<style type="text/css">
	.st0{fill:none;stroke:#FFFFFF;stroke-width:7;stroke-linecap:round;stroke-linejoin:round;}
	.st1{fill:none;stroke:#15C87F;stroke-width:7;stroke-linecap:round;stroke-linejoin:round;}
	.st2{fill:none;}
</style>
<title>immune</title>
<g>
	<g id="Layer_1-2">
		<rect x="151.4" y="236.8" class="st0" width="226.4" height="55.7"/>
		<path class="st1" d="M107,128h32.9c6.3,0,11.5,5.1,11.5,11.5v250.2c0,6.3-5.1,11.5-11.5,11.5H107c-6.3,0-11.5-5.1-11.5-11.5V139.5
			C95.5,133.1,100.6,128,107,128z"/>
		<path class="st1" d="M60.6,174.2H84c6.3,0,11.5,5.1,11.5,11.5v157.8c0,6.3-5.1,11.5-11.5,11.5H60.6c-6.3,0-11.5-5.1-11.5-11.5
			V185.7C49.1,179.4,54.2,174.2,60.6,174.2z"/>
		<path class="st1" d="M22.2,236.8h15.4c6.3,0,11.5,5.1,11.5,11.5V281c0,6.3-5.1,11.5-11.5,11.5H22.2c-6.3,0-11.5-5.1-11.5-11.5
			v-32.7C10.7,241.9,15.8,236.8,22.2,236.8z"/>
		<path class="st1" d="M422.2,401.2h-32.9c-6.3,0-11.5-5.1-11.5-11.5V139.5c0-6.3,5.1-11.5,11.5-11.5h32.9c6.3,0,11.5,5.1,11.5,11.5
			v250.2C433.7,396.1,428.6,401.2,422.2,401.2z"/>
		<path class="st1" d="M468.6,355h-23.4c-6.3,0-11.5-5.1-11.5-11.5V185.7c0-6.3,5.1-11.5,11.5-11.5h23.4c6.3,0,11.5,5.1,11.5,11.5
			v157.8C480.1,349.9,475,355,468.6,355z"/>
		<path class="st1" d="M507,292.4h-15.4c-6.3,0-11.5-5.1-11.5-11.5v-32.7c0-6.3,5.1-11.5,11.5-11.5H507c6.3,0,11.5,5.1,11.5,11.5
			v32.7C518.5,287.3,513.4,292.4,507,292.4z"/>
		<rect class="st2" width="529.2" height="529.2"/>
	</g>
</g>
</svg>
