<svg xmlns="http://www.w3.org/2000/svg" viewBox="0 0 80.64 80.64"><defs><style>.cls-1{fill:#50b36f;}</style></defs><title>natural</title><g id="Layer_2" data-name="Layer 2"><g id="Layer_1-2" data-name="Layer 1"><path class="cls-1" d="M40.32,80.64A40.32,40.32,0,1,1,80.64,40.32,40.37,40.37,0,0,1,40.32,80.64ZM40.32,3A37.32,37.32,0,1,0,77.64,40.32,37.36,37.36,0,0,0,40.32,3Z"/><path class="cls-1" d="M49.16,48.46a12.23,12.23,0,0,1-8.65-20.88c4.38-4.39,22.08-8.14,24.08-8.56l2.23-.46-.46,2.23c-.41,2-4.17,19.71-8.55,24.09A12.23,12.23,0,0,1,49.16,48.46Zm13.77-26c-6.23,1.42-17.51,4.45-20.3,7.24A9.23,9.23,0,0,0,55.69,42.76C58.47,40,61.5,28.69,62.93,22.46Z"/><path class="cls-1" d="M48.61,61a18.66,18.66,0,0,1,0-26.36l2.12,2.12a15.66,15.66,0,0,0,0,22.12Z"/><path class="cls-1" d="M30.78,61.64a10,10,0,0,1-5.9-1.92c-4.05-3-9.2-16.46-9.78-18l-.8-2.14,2.28.11c1.63.08,16.07.86,20.12,3.82a10,10,0,0,1-5.92,18.12Zm-12-18.8c2.21,5.47,5.69,12.85,7.89,14.45a7,7,0,0,0,8.28-11.35h0C32.73,44.34,24.64,43.27,18.76,42.84Z"/><rect class="cls-1" x="33.5" y="45.83" width="3" height="17.71" transform="translate(-29.81 50.75) rotate(-53.9)"/><rect class="cls-1" x="47.81" y="29.73" width="12.68" height="3" transform="translate(-6.22 47.44) rotate(-45)"/></g></g></svg>