<svg xmlns="http://www.w3.org/2000/svg" viewBox="0 0 80.64 80.64"><defs><style>.cls-1{fill:#50b36f;}</style></defs><title>quadra</title><g id="Layer_2" data-name="Layer 2"><g id="Layer_1-2" data-name="Layer 1"><path class="cls-1" d="M40.32,80.64A40.32,40.32,0,1,1,80.64,40.32,40.37,40.37,0,0,1,40.32,80.64ZM40.32,3A37.32,37.32,0,1,0,77.64,40.32,37.36,37.36,0,0,0,40.32,3Z"/><path class="cls-1" d="M49,49H31.67V40L20.6,35.9V23.26H60V35.9L49,40ZM34.67,46H46v-8L57,33.81V26.26H23.6v7.55l11.07,4.12Z"/><path class="cls-1" d="M40.32,65.63a5.27,5.27,0,0,1-5.27-5.27c0-2.4,3.12-6.64,4.08-7.88l1.19-1.54,1.19,1.54c1,1.24,4.07,5.48,4.07,7.88A5.27,5.27,0,0,1,40.32,65.63Zm0-9.67c-1.23,1.81-2.27,3.69-2.27,4.4a2.27,2.27,0,1,0,4.53,0C42.58,59.65,41.55,57.77,40.32,56Z"/></g></g></svg>