<svg xmlns="http://www.w3.org/2000/svg" viewBox="0 0 80.64 80.64"><defs><style>.cls-1{fill:#50b36f;}</style></defs><title>quality</title><g id="Layer_2" data-name="Layer 2"><g id="Layer_1-2" data-name="Layer 1"><path class="cls-1" d="M40.32,80.64A40.32,40.32,0,1,1,80.64,40.32,40.37,40.37,0,0,1,40.32,80.64ZM40.32,3A37.32,37.32,0,1,0,77.64,40.32,37.36,37.36,0,0,0,40.32,3Z"/><path class="cls-1" d="M35.6,51.53l-2.52-5.65-6,1.55.19-6.18-6.07-1.19,2.85-5.5-4.95-3.71,4.95-3.71-2.85-5.49,6.07-1.19-.19-6.19,6,1.56,2.52-5.66,4.72,4,4.72-4,2.51,5.66,6-1.55-.19,6.18,6.08,1.19-2.86,5.49,5,3.71-5,3.72,2.86,5.49-6.08,1.19.19,6.18-6-1.55L45,51.53l-4.72-4Zm4.72-7.94,3.6,3.06,1.92-4.32,4.58,1.19-.14-4.73,4.64-.9-2.18-4.2,3.78-2.84L52.74,28l2.18-4.2-4.64-.91.14-4.73-4.58,1.19-1.92-4.32-3.6,3.07-3.61-3.07-1.92,4.32-4.58-1.19.15,4.73-4.64.91L27.9,28l-3.79,2.84,3.79,2.84-2.18,4.19,4.64.91-.15,4.73,4.58-1.19,1.92,4.32Z"/><polygon class="cls-1" points="29.13 66.56 29.13 45.15 32.13 45.15 32.13 60.89 40.32 55.31 48.51 60.89 48.51 45.15 51.51 45.15 51.51 66.56 40.32 58.94 29.13 66.56"/></g></g></svg>