<?xml version="1.0" encoding="UTF-8"?>
<svg width="70px" height="68px" viewBox="0 0 70 68" version="1.1" xmlns="http://www.w3.org/2000/svg" xmlns:xlink="http://www.w3.org/1999/xlink">
    <!-- Generator: Sketch 55.2 (78181) - https://sketchapp.com -->
    <title>Group 7</title>
    <desc>Created with Sketch.</desc>
    <g id="Desktop" stroke="none" stroke-width="1" fill="none" fill-rule="evenodd">
        <g id="Home" transform="translate(-1016.000000, -6196.000000)">
            <g id="footer" transform="translate(-40.000000, 6118.000000)">
                <g id="Group-7" transform="translate(1058.000000, 80.000000)">
                    <ellipse id="Oval-Copy-15" stroke="#000000" stroke-width="3" cx="32.9275609" cy="32.2366215" rx="32.9275609" ry="32.2366215"></ellipse>
                    <path d="M41.9389547,35.9761393 C41.5004876,35.7353057 39.346749,34.5692837 38.9427634,34.4046001 C38.5389197,34.2402013 38.244338,34.1545146 37.9294647,34.5916305 C37.6150172,35.0276077 36.721481,36.004322 36.4507383,36.2935501 C36.1787184,36.5827782 35.9170572,36.6098221 35.4783064,36.3682768 C35.0409746,36.1281549 33.6197171,35.6007975 31.9711379,34.0114663 C30.6885155,32.7744183 29.8473399,31.2746168 29.6032741,30.8168621 C29.3592084,30.358538 29.6015714,30.1251059 29.8334339,29.9106045 C30.0415993,29.717169 30.299713,29.4037436 30.5327107,29.1509537 C30.7649989,28.8981638 30.8471582,28.7144071 31.0069362,28.4210513 C31.1667141,28.1276954 31.102434,27.8633762 30.998848,27.6350682 C30.8954038,27.4076142 30.0848784,25.1696548 29.746308,24.2592694 C29.4077377,23.3488841 29.030571,23.4842463 28.769903,23.473998 C28.5095189,23.4648885 28.2132344,23.4157823 27.9155309,23.4048224 C27.6178274,23.3934355 27.1296958,23.4876623 26.7039997,23.9200811 C26.2781617,24.3527846 25.0842259,25.3926963 25.0020666,27.596922 C24.9197653,29.7998666 26.4397843,31.9897162 26.651781,32.2963094 C26.8639196,32.6037566 29.554461,37.3804329 34.0256893,39.3448212 C38.497911,41.3086402 38.5214661,40.7099722 39.3419245,40.6659902 C40.1628085,40.6225775 42.0238101,39.6813051 42.4353163,38.6500759 C42.8465388,37.6188468 42.8794593,36.7221258 42.7750219,36.53111 C42.6701587,36.3403788 42.3771379,36.2164036 41.9389547,35.9761393 M33.7377768,46.5951664 C30.7807496,46.5951664 28.0266376,45.7054199 25.727169,44.1804249 L20.1316772,45.9769983 L21.9503929,40.5534019 C20.2073092,38.1450654 19.1775503,35.1865978 19.1775503,31.9897162 C19.1775503,23.9355958 25.7094317,17.3831273 33.7377768,17.3831273 C41.7673991,17.3831273 48.2989967,23.9355958 48.2989967,31.9897162 C48.2989967,40.0432673 41.7673991,46.5951664 33.7377768,46.5951664 M33.7377768,14.4444444 C24.078306,14.4444444 16.2473419,22.2994358 16.2473419,31.9897162 C16.2473419,35.3043102 17.1644333,38.4046875 18.7569625,41.0493028 L15.6,50.4623114 L25.2838774,47.3525399 C27.7899505,48.7421728 30.6714876,49.534988 33.7377768,49.534988 C43.3986667,49.534988 51.2292051,41.6790003 51.2292051,31.9897162 C51.2292051,22.2994358 43.3986667,14.4444444 33.7377768,14.4444444" id="Fill-4" fill="#000000"></path>
                </g>
            </g>
        </g>
    </g>
</svg>
